Coordinates
version=1
nRows=38
nColumns=12
inDegrees=yes

Units are S.I. units (second, meters, Newtons, ...)
Angles are in degrees

endheader
time	SC_y	SC_z	SC_x	AC_y	AC_z	AC_x	GH_y	GH_z	GH_yy	EL_x	PS_y
       0.0              -28.89          34.55          18.33          48.56         -18.36         -15.11         -135.9          9.993         -157.0           69.6          16.53
   0.02142              -28.89          34.54          18.33          48.56         -18.35          -15.1         -135.9          9.989         -157.0          69.61          16.54
   0.04284              -28.88          34.54          18.33          48.56         -18.35          -15.1         -135.8          9.984         -157.0          69.61          16.54
   0.06426              -28.88          34.53          18.33          48.56         -18.35          -15.1         -135.8           9.98         -157.0          69.62          16.55
   0.08568              -28.88          34.53          18.33          48.56         -18.35          -15.1         -135.7          9.974         -157.0          69.62          16.56
    0.1071              -28.88          34.52          18.33          48.55         -18.34         -15.09         -135.6          9.969         -157.0          69.63          16.57
    0.1285              -28.88          34.51          18.33          48.55         -18.34         -15.09         -135.6          9.963         -157.0          69.64          16.58
    0.1499              -28.88          34.51          18.33          48.55         -18.33         -15.08         -135.5          9.957         -157.0          69.65           16.6
    0.1714              -28.87           34.5          18.33          48.55         -18.33         -15.08         -135.4           9.95         -156.9          69.65          16.61
    0.1928              -28.87          34.49          18.33          48.55         -18.33         -15.08         -135.4          9.942         -156.9          69.66          16.62
    0.2142              -28.87          34.48          18.33          48.55         -18.32         -15.07         -135.3          9.935         -156.9          69.67          16.64
    0.2356              -28.87          34.48          18.33          48.55         -18.32         -15.07         -135.2          9.926         -156.9          69.68          16.65
     0.257              -28.86          34.47          18.33          48.55         -18.31         -15.06         -135.1          9.917         -156.9          69.69          16.67
    0.2785              -28.86          34.46          18.33          48.55          -18.3         -15.06         -135.0          9.907         -156.9           69.7          16.69
    0.2999              -28.86          34.45          18.33          48.54          -18.3         -15.05         -134.9          9.897         -156.9          69.72          16.71
    0.3213              -28.85          34.43          18.33          48.54         -18.29         -15.04         -134.8          9.885         -156.9          69.73          16.73
    0.3427              -28.85          34.42          18.33          48.54         -18.28         -15.03         -134.6          9.873         -156.9          69.74          16.75
    0.3641              -28.84          34.41          18.33          48.54         -18.27         -15.03         -134.5          9.859         -156.8          69.76          16.78
    0.3856              -28.84          34.39          18.33          48.54         -18.26         -15.02         -134.3          9.844         -156.8          69.78           16.8
     0.407              -28.83          34.38          18.33          48.53         -18.25         -15.01         -134.2          9.828         -156.8           69.8          16.83
    0.4284              -28.83          34.36          18.33          48.53         -18.24          -15.0         -134.0           9.81         -156.8          69.82          16.87
    0.4498              -28.82          34.34          18.33          48.53         -18.23         -14.99         -133.8           9.79         -156.7          69.84           16.9
    0.4712              -28.81          34.32          18.33          48.52         -18.22         -14.97         -133.6          9.769         -156.7          69.87          16.94
    0.4927               -28.8          34.29          18.33          48.52          -18.2         -14.96         -133.3          9.745         -156.7          69.89          16.99
    0.5141               -28.8          34.26          18.33          48.52         -18.19         -14.94         -133.0          9.718         -156.7          69.92          17.04
    0.5355              -28.79          34.23          18.32          48.51         -18.17         -14.93         -132.7          9.688         -156.6          69.96          17.09
    0.5569              -28.78           34.2          18.32          48.51         -18.15         -14.91         -132.4          9.655         -156.6           70.0          17.16
    0.5783              -28.76          34.16          18.32           48.5         -18.12         -14.88         -132.0          9.617         -156.5          70.04          17.23
    0.5998              -28.75          34.12          18.32          48.49          -18.1         -14.86         -131.5          9.574         -156.5          70.09           17.3
    0.6212              -28.73          34.07          18.32          48.49         -18.07         -14.83         -131.0          9.526         -156.4          70.15          17.39
    0.6426              -28.71          34.01          18.32          48.48         -18.03          -14.8         -130.4          9.471         -156.3          70.21           17.5
     0.664              -28.69          33.95          18.32          48.47         -17.99         -14.76         -129.8          9.408         -156.3          70.29          17.61
    0.6855              -28.67          33.87          18.31          48.46         -17.95         -14.71         -129.0          9.335         -156.2          70.37          17.75
    0.7069              -28.64          33.78          18.31          48.45         -17.89         -14.66         -128.1           9.25         -156.0          70.47          17.91
    0.7283              -28.61          33.68          18.31          48.43         -17.83         -14.61         -127.1          9.151         -155.9          70.59          18.09
    0.7497              -28.57          33.56          18.31          48.41         -17.76         -14.54         -125.9          9.034         -155.8          70.73          18.31
    0.7711              -28.52          33.42           18.3          48.39         -17.67         -14.45         -124.4          8.895         -155.6          70.89          18.57
    0.7926              -28.47          33.25           18.3          48.37         -17.57         -14.35         -122.7          8.728         -155.4          71.09          18.88
